<svg xmlns="http://www.w3.org/2000/svg" viewBox="-3 -3 218 109.4" width="763" height="383" role="img" aria-labelledby="pm-macbookair8-1-2018-t pm-macbookair8-1-2018-d"><title id="pm-macbookair8-1-2018-t">MacBook Air (Retina, 13-inch, 2018) (MacBookAir8,1): port map</title><desc id="pm-macbookair8-1-2018-d">Left side, left to right: 1 Thunderbolt 3 (USB-C), 2 Thunderbolt 3 (USB-C); Right side, left to right: 1 Headphone</desc><style>.pm-o{fill:none;stroke:currentColor;stroke-width:.45;stroke-linejoin:round}.pm-t{fill:none;stroke:currentColor;stroke-width:.25}.pm-f{fill:none;stroke:currentColor;stroke-width:.3;opacity:.45}.pm-p{fill:currentColor;fill-opacity:.1;stroke:currentColor;stroke-width:.35;stroke-linejoin:round}.pm-d{fill:none;stroke:currentColor;stroke-width:.3}.pm-k{fill:currentColor}.pm-l{fill:none;stroke:currentColor;stroke-width:.25;stroke-dasharray:.5 .7;opacity:.7}.pm-c{fill:none;stroke:currentColor;stroke-width:.3}.pm-x{fill:currentColor;font:3.8px/1 system-ui,sans-serif}.pm-n{fill:currentColor;font:600 3.3px/1 Inter,system-ui,sans-serif;text-anchor:middle}.pm-h{fill:currentColor;font:600 3.4px/1 system-ui,sans-serif;letter-spacing:.35px;text-transform:uppercase}.pm-e{fill:currentColor;font:3px/1 system-ui,sans-serif;opacity:.6}.pm-lg{display:none}</style><g transform="translate(0,0)"><text class="pm-h" x="0" y="3.4">Left side</text><g transform="translate(0,8)"><path class="pm-o" d="M0,1.4 C0,0.28 10.6,-0.27 21.2,0 L200.34,4.48 C206.75,4.64 212,5.9 212,6.51 V10.61 C208.41,13.1 200.02,15.6 188.04,15.6 H27.56 C15.16,15.6 3.31,12.6 0,10.61 Z"/><path class="pm-t" d="M.2,2.9 L211.8,8.2"/><path class="pm-f" d="M.3,10.61 H211.7"/><rect class="pm-t" x="29.56" y="15.6" width="8" height="0.8" rx="0.4"/><rect class="pm-t" x="178.04" y="15.6" width="8" height="0.8" rx="0.4"/><g class="pm-port" data-conn="left-1" transform="translate(19.5,7)"><rect class="pm-p" x="-4.47" y="-1.63" width="8.94" height="3.26" rx="1.63"/><rect class="pm-d" x="-3.35" y="-0.35" width="6.69" height="0.7" rx="0.35"/></g><g class="pm-port" data-conn="left-2" transform="translate(33,7.17)"><rect class="pm-p" x="-4.47" y="-1.63" width="8.94" height="3.26" rx="1.63"/><rect class="pm-d" x="-3.35" y="-0.35" width="6.69" height="0.7" rx="0.35"/></g><text class="pm-e" x="0" y="20.2">back</text><text class="pm-e" x="212" y="20.2" text-anchor="end">front</text><g class="pm-sm"><g class="pm-k" data-conn="left-1"><polyline class="pm-l" points="19.5,9.13 19.5,18 19.5,21.2"/><circle class="pm-c" cx="19.5" cy="23.9" r="2.6"/><text class="pm-n" x="19.54" y="25.1">1</text></g><g class="pm-k" data-conn="left-2"><polyline class="pm-l" points="33,9.3 33,18 33,21.2"/><circle class="pm-c" cx="33" cy="23.9" r="2.6"/><text class="pm-n" x="33" y="25.1">2</text></g></g><rect class="pm-c" x="0" y="29.1" width="8.85" height="5.2" rx="2.6"/><text class="pm-n" x="4.45" y="32.9">1–2</text><text class="pm-x" x="10.65" y="33.05">Thunderbolt 3 (USB-C)</text></g></g><g transform="translate(0,53.2)"><text class="pm-h" x="0" y="3.4">Right side</text><g transform="translate(0,8)"><g transform="translate(212,0) scale(-1,1)"><path class="pm-o" d="M0,1.4 C0,0.28 10.6,-0.27 21.2,0 L200.34,4.48 C206.75,4.64 212,5.9 212,6.51 V10.61 C208.41,13.1 200.02,15.6 188.04,15.6 H27.56 C15.16,15.6 3.31,12.6 0,10.61 Z"/><path class="pm-t" d="M.2,2.9 L211.8,8.2"/><path class="pm-f" d="M.3,10.61 H211.7"/><rect class="pm-t" x="29.56" y="15.6" width="8" height="0.8" rx="0.4"/><rect class="pm-t" x="178.04" y="15.6" width="8" height="0.8" rx="0.4"/></g><g class="pm-port" data-conn="right-1" transform="translate(194,6.98)"><circle class="pm-d" cx="0" cy="0" r="2.25"/><circle class="pm-p" cx="0" cy="0" r="1.31"/></g><text class="pm-e" x="0" y="20.2">front</text><text class="pm-e" x="212" y="20.2" text-anchor="end">back</text><g class="pm-sm"><g class="pm-k" data-conn="right-1"><polyline class="pm-l" points="194,9.73 194,18 194,21.2"/><circle class="pm-c" cx="194" cy="23.9" r="2.6"/><text class="pm-n" x="194.04" y="25.1">1</text></g></g><rect class="pm-c" x="0" y="29.1" width="5.2" height="5.2" rx="2.6"/><text class="pm-n" x="2.64" y="32.9">1</text><text class="pm-x" x="7" y="33.05">Headphone</text></g></g><text class="pm-e" x="212" y="102.4" text-anchor="end">DoesItOmarchy · doesitomarchy.com · CC BY-SA 4.0</text></svg>
