<svg xmlns="http://www.w3.org/2000/svg" viewBox="-3 -3 249 130" width="872" height="455" role="img" aria-labelledby="pm-macbookpro1-1-15-early-2006-t pm-macbookpro1-1-15-early-2006-d"><title id="pm-macbookpro1-1-15-early-2006-t">MacBook Pro (15-inch, Early 2006) (MacBookPro1,1): port map</title><desc id="pm-macbookpro1-1-15-early-2006-d">Left side, left to right: 1 MagSafe, 2 USB 2, 3 Line in + optical in, 4 Headphone + optical out, 5 ExpressCard/34; Right side, left to right: 1 USB 2, 2 FireWire 400, 3 Gigabit Ethernet, 4 DVI</desc><style>.pm-o{fill:none;stroke:currentColor;stroke-width:.45;stroke-linejoin:round}.pm-t{fill:none;stroke:currentColor;stroke-width:.25}.pm-f{fill:none;stroke:currentColor;stroke-width:.3;opacity:.45}.pm-p{fill:currentColor;fill-opacity:.1;stroke:currentColor;stroke-width:.35;stroke-linejoin:round}.pm-d{fill:none;stroke:currentColor;stroke-width:.3}.pm-k{fill:currentColor}.pm-l{fill:none;stroke:currentColor;stroke-width:.25;stroke-dasharray:.5 .7;opacity:.7}.pm-c{fill:none;stroke:currentColor;stroke-width:.3}.pm-x{fill:currentColor;font:3.8px/1 system-ui,sans-serif}.pm-n{fill:currentColor;font:600 3.3px/1 Inter,system-ui,sans-serif;text-anchor:middle}.pm-h{fill:currentColor;font:600 3.4px/1 system-ui,sans-serif;letter-spacing:.35px;text-transform:uppercase}.pm-e{fill:currentColor;font:3px/1 system-ui,sans-serif;opacity:.6}.pm-lg{display:none}</style><g transform="translate(0,0)"><text class="pm-h" x="0" y="3.4">Left side</text><g transform="translate(0,8)"><path class="pm-o" d="M6.22,0 H236.78 A6.22,6.22 0 0 1 243,6.22 V22.27 C243,24.99 242.12,25.9 240.5,25.9 H2.5 C0.88,25.9 0,24.99 0,22.27 V6.22 A6.22,6.22 0 0 1 6.22,0 Z"/><path class="pm-t" d="M.25,7.77 H242.75 M.25,8.57 H242.75"/><rect class="pm-t" x="17.01" y="25.9" width="8" height="0.8" rx="0.4"/><rect class="pm-t" x="217.99" y="25.9" width="8" height="0.8" rx="0.4"/><circle class="pm-f" cx="8" cy="11.92" r="0.7"/><circle class="pm-f" cx="82.6" cy="11.92" r="0.7"/><circle class="pm-f" cx="161.6" cy="11.92" r="0.7"/><circle class="pm-f" cx="234.7" cy="11.92" r="0.7"/><g class="pm-port" data-conn="left-1" transform="translate(26,15.42)"><rect class="pm-p" x="-6.5" y="-2.8" width="13" height="5.6" rx="0.8"/><rect class="pm-d" x="-3.15" y="-0.75" width="6.3" height="1.5" rx="0.75"/><circle class="pm-k" cx="-2.5" cy="0" r="0.35"/><circle class="pm-k" cx="-1.25" cy="0" r="0.35"/><circle class="pm-k" cx="0" cy="0" r="0.35"/><circle class="pm-k" cx="1.25" cy="0" r="0.35"/><circle class="pm-k" cx="2.5" cy="0" r="0.35"/></g><g class="pm-port" data-conn="left-2" transform="translate(48.1,15.42)"><rect class="pm-p" x="-6.5" y="-2.8" width="13" height="5.6" rx="0.6"/><rect class="pm-d" x="-5.55" y="-1.55" width="11.1" height="1.84" rx="0.25"/></g><g class="pm-port" data-conn="left-3" transform="translate(65.95,15.42)"><circle class="pm-d" cx="0" cy="0" r="2.25"/><circle class="pm-p" cx="0" cy="0" r="1.31"/></g><g class="pm-port" data-conn="left-4" transform="translate(79.55,15.42)"><circle class="pm-d" cx="0" cy="0" r="2.25"/><circle class="pm-p" cx="0" cy="0" r="1.31"/></g><g class="pm-port" data-conn="left-5" transform="translate(107.9,15.42)"><rect class="pm-p" x="-17" y="-3" width="34" height="6" rx="3"/></g><text class="pm-e" x="0" y="30.5">back</text><text class="pm-e" x="243" y="30.5" text-anchor="end">front</text><g class="pm-sm"><g class="pm-k" data-conn="left-1"><polyline class="pm-l" points="26,18.72 26,28.3 26,31.5"/><circle class="pm-c" cx="26" cy="34.2" r="2.6"/><text class="pm-n" x="26.04" y="35.4">1</text></g><g class="pm-k" data-conn="left-2"><polyline class="pm-l" points="48.1,18.72 48.1,28.3 48.1,31.5"/><circle class="pm-c" cx="48.1" cy="34.2" r="2.6"/><text class="pm-n" x="48.1" y="35.4">2</text></g><g class="pm-k" data-conn="left-3"><polyline class="pm-l" points="65.95,18.17 65.95,28.3 65.95,31.5"/><circle class="pm-c" cx="65.95" cy="34.2" r="2.6"/><text class="pm-n" x="65.95" y="35.4">3</text></g><g class="pm-k" data-conn="left-4"><polyline class="pm-l" points="79.55,18.17 79.55,28.3 79.55,31.5"/><circle class="pm-c" cx="79.55" cy="34.2" r="2.6"/><text class="pm-n" x="79.54" y="35.4">4</text></g><g class="pm-k" data-conn="left-5"><polyline class="pm-l" points="107.9,18.92 107.9,28.3 107.9,31.5"/><circle class="pm-c" cx="107.9" cy="34.2" r="2.6"/><text class="pm-n" x="107.9" y="35.4">5</text></g></g><rect class="pm-c" x="0" y="39.4" width="5.2" height="5.2" rx="2.6"/><text class="pm-n" x="2.64" y="43.2">1</text><text class="pm-x" x="7" y="43.35">MagSafe</text><rect class="pm-c" x="26.85" y="39.4" width="5.2" height="5.2" rx="2.6"/><text class="pm-n" x="29.45" y="43.2">2</text><text class="pm-x" x="33.85" y="43.35">USB 2</text><rect class="pm-c" x="49.6" y="39.4" width="5.2" height="5.2" rx="2.6"/><text class="pm-n" x="52.2" y="43.2">3</text><text class="pm-x" x="56.6" y="43.35">Line in + optical in</text><rect class="pm-c" x="103.1" y="39.4" width="5.2" height="5.2" rx="2.6"/><text class="pm-n" x="105.69" y="43.2">4</text><text class="pm-x" x="110.1" y="43.35">Headphone + optical out</text><rect class="pm-c" x="162.75" y="39.4" width="5.2" height="5.2" rx="2.6"/><text class="pm-n" x="165.35" y="43.2">5</text><text class="pm-x" x="169.75" y="43.35">ExpressCard/34</text></g></g><g transform="translate(0,63.5)"><text class="pm-h" x="0" y="3.4">Right side</text><g transform="translate(0,8)"><g transform="translate(243,0) scale(-1,1)"><path class="pm-o" d="M6.22,0 H236.78 A6.22,6.22 0 0 1 243,6.22 V22.27 C243,24.99 242.12,25.9 240.5,25.9 H2.5 C0.88,25.9 0,24.99 0,22.27 V6.22 A6.22,6.22 0 0 1 6.22,0 Z"/><path class="pm-t" d="M.25,7.77 H242.75 M.25,8.57 H242.75"/><rect class="pm-t" x="17.01" y="25.9" width="8" height="0.8" rx="0.4"/><rect class="pm-t" x="217.99" y="25.9" width="8" height="0.8" rx="0.4"/></g><circle class="pm-f" cx="7.5" cy="11.92" r="0.7"/><circle class="pm-f" cx="82.3" cy="11.92" r="0.7"/><circle class="pm-f" cx="169.9" cy="11.92" r="0.7"/><circle class="pm-f" cx="234.5" cy="11.92" r="0.7"/><rect class="pm-f" x="108" y="13.92" width="7" height="3" rx="0.4"/><g class="pm-port" data-conn="right-1" transform="translate(130.8,15.42)"><rect class="pm-p" x="-6.5" y="-2.8" width="13" height="5.6" rx="0.6"/><rect class="pm-d" x="-5.55" y="-1.55" width="11.1" height="1.84" rx="0.25"/></g><g class="pm-port" data-conn="right-2" transform="translate(152.75,15.42)"><path class="pm-p" d="M-5.15,-3.1 H4.05 L5.65,-2 V2 L4.05,3.1 H-5.15 A.5,.5 0 0 1 -5.65,2.6 V-2.6 A.5,.5 0 0 1 -5.15,-3.1 Z"/><path class="pm-d" d="M-2.7,0 H3.3"/><rect class="pm-d" x="-3.05" y="-0.75" width="0.7" height="1.5" rx="0.3"/><rect class="pm-d" x="-1.05" y="-0.75" width="0.7" height="1.5" rx="0.3"/><rect class="pm-d" x="0.95" y="-0.75" width="0.7" height="1.5" rx="0.3"/><rect class="pm-d" x="2.95" y="-0.75" width="0.7" height="1.5" rx="0.3"/></g><g class="pm-port" data-conn="right-3" transform="translate(174.1,15.42)"><path class="pm-p" d="M-5.85,-4.4 H5.85 V2.6 H3.1 V4.4 H-3.1 V2.6 H-5.85 Z"/><path class="pm-d" d="M-3.5,-4.4 v2.2"/><path class="pm-d" d="M-2.5,-4.4 v2.2"/><path class="pm-d" d="M-1.5,-4.4 v2.2"/><path class="pm-d" d="M-0.5,-4.4 v2.2"/><path class="pm-d" d="M0.5,-4.4 v2.2"/><path class="pm-d" d="M1.5,-4.4 v2.2"/><path class="pm-d" d="M2.5,-4.4 v2.2"/><path class="pm-d" d="M3.5,-4.4 v2.2"/></g><g class="pm-port" data-conn="right-4" transform="translate(207.4,15.42)"><path class="pm-p" d="M-11.2,-4.05 H11.2 A.8,.8 0 0 1 12,-3.25 V2.55 L10.5,4.05 H-10.5 L-12,2.55 V-3.25 A.8,.8 0 0 1 -11.2,-4.05 Z"/><rect class="pm-k" x="-10.08" y="-2.8" width="1.1" height="1.1" rx="0.15"/><rect class="pm-k" x="-8.17" y="-2.8" width="1.1" height="1.1" rx="0.15"/><rect class="pm-k" x="-6.26" y="-2.8" width="1.1" height="1.1" rx="0.15"/><rect class="pm-k" x="-4.36" y="-2.8" width="1.1" height="1.1" rx="0.15"/><rect class="pm-k" x="-2.46" y="-2.8" width="1.1" height="1.1" rx="0.15"/><rect class="pm-k" x="-0.55" y="-2.8" width="1.1" height="1.1" rx="0.15"/><rect class="pm-k" x="1.35" y="-2.8" width="1.1" height="1.1" rx="0.15"/><rect class="pm-k" x="3.26" y="-2.8" width="1.1" height="1.1" rx="0.15"/><rect class="pm-k" x="-10.08" y="-0.9" width="1.1" height="1.1" rx="0.15"/><rect class="pm-k" x="-8.17" y="-0.9" width="1.1" height="1.1" rx="0.15"/><rect class="pm-k" x="-6.26" y="-0.9" width="1.1" height="1.1" rx="0.15"/><rect class="pm-k" x="-4.36" y="-0.9" width="1.1" height="1.1" rx="0.15"/><rect class="pm-k" x="-2.46" y="-0.9" width="1.1" height="1.1" rx="0.15"/><rect class="pm-k" x="-0.55" y="-0.9" width="1.1" height="1.1" rx="0.15"/><rect class="pm-k" x="1.35" y="-0.9" width="1.1" height="1.1" rx="0.15"/><rect class="pm-k" x="3.26" y="-0.9" width="1.1" height="1.1" rx="0.15"/><rect class="pm-k" x="-10.08" y="1.01" width="1.1" height="1.1" rx="0.15"/><rect class="pm-k" x="-8.17" y="1.01" width="1.1" height="1.1" rx="0.15"/><rect class="pm-k" x="-6.26" y="1.01" width="1.1" height="1.1" rx="0.15"/><rect class="pm-k" x="-4.36" y="1.01" width="1.1" height="1.1" rx="0.15"/><rect class="pm-k" x="-2.46" y="1.01" width="1.1" height="1.1" rx="0.15"/><rect class="pm-k" x="-0.55" y="1.01" width="1.1" height="1.1" rx="0.15"/><rect class="pm-k" x="1.35" y="1.01" width="1.1" height="1.1" rx="0.15"/><rect class="pm-k" x="3.26" y="1.01" width="1.1" height="1.1" rx="0.15"/><rect class="pm-k" x="6.45" y="-2.17" width="1.1" height="1.1" rx="0.15"/><rect class="pm-k" x="6.45" y="0.37" width="1.1" height="1.1" rx="0.15"/><rect class="pm-k" x="8.99" y="-2.17" width="1.1" height="1.1" rx="0.15"/><rect class="pm-k" x="8.99" y="0.37" width="1.1" height="1.1" rx="0.15"/><path class="pm-d" d="M5.87,-.35 H10.67 M8.27,-2.75 V2.05"/><circle class="pm-d" cx="-16.25" cy="0" r="1.4"/><circle class="pm-d" cx="16.25" cy="0" r="1.4"/></g><text class="pm-e" x="0" y="30.5">front</text><text class="pm-e" x="243" y="30.5" text-anchor="end">back</text><g class="pm-sm"><g class="pm-k" data-conn="right-1"><polyline class="pm-l" points="130.8,18.72 130.8,28.3 130.8,31.5"/><circle class="pm-c" cx="130.8" cy="34.2" r="2.6"/><text class="pm-n" x="130.84" y="35.4">1</text></g><g class="pm-k" data-conn="right-2"><polyline class="pm-l" points="152.75,19.02 152.75,28.3 152.75,31.5"/><circle class="pm-c" cx="152.75" cy="34.2" r="2.6"/><text class="pm-n" x="152.75" y="35.4">2</text></g><g class="pm-k" data-conn="right-3"><polyline class="pm-l" points="174.1,20.32 174.1,28.3 174.1,31.5"/><circle class="pm-c" cx="174.1" cy="34.2" r="2.6"/><text class="pm-n" x="174.1" y="35.4">3</text></g><g class="pm-k" data-conn="right-4"><polyline class="pm-l" points="207.4,19.97 207.4,28.3 207.4,31.5"/><circle class="pm-c" cx="207.4" cy="34.2" r="2.6"/><text class="pm-n" x="207.39" y="35.4">4</text></g></g><rect class="pm-c" x="0" y="39.4" width="5.2" height="5.2" rx="2.6"/><text class="pm-n" x="2.64" y="43.2">1</text><text class="pm-x" x="7" y="43.35">USB 2</text><rect class="pm-c" x="22.75" y="39.4" width="5.2" height="5.2" rx="2.6"/><text class="pm-n" x="25.35" y="43.2">2</text><text class="pm-x" x="29.75" y="43.35">FireWire 400</text><rect class="pm-c" x="59.85" y="39.4" width="5.2" height="5.2" rx="2.6"/><text class="pm-n" x="62.45" y="43.2">3</text><text class="pm-x" x="66.85" y="43.35">Gigabit Ethernet</text><rect class="pm-c" x="105.15" y="39.4" width="5.2" height="5.2" rx="2.6"/><text class="pm-n" x="107.74" y="43.2">4</text><text class="pm-x" x="112.15" y="43.35">DVI</text></g></g><text class="pm-e" x="243" y="123" text-anchor="end">DoesItOmarchy · doesitomarchy.com · CC BY-SA 4.0</text></svg>
