<svg xmlns="http://www.w3.org/2000/svg" viewBox="-3 -3 251.9 122.2" width="882" height="428" role="img" aria-labelledby="pm-macbookpro16-1-16-2019-t pm-macbookpro16-1-16-2019-d"><title id="pm-macbookpro16-1-16-2019-t">MacBook Pro (16-inch, 2019) (MacBookPro16,1): port map</title><desc id="pm-macbookpro16-1-16-2019-d">Left side, left to right: 1 Thunderbolt 3 (USB-C), 2 Thunderbolt 3 (USB-C); Right side, left to right: 1 Thunderbolt 3 (USB-C), 2 Thunderbolt 3 (USB-C), 3 Headphone</desc><style>.pm-o{fill:none;stroke:currentColor;stroke-width:.45;stroke-linejoin:round}.pm-t{fill:none;stroke:currentColor;stroke-width:.25}.pm-f{fill:none;stroke:currentColor;stroke-width:.3;opacity:.45}.pm-p{fill:currentColor;fill-opacity:.1;stroke:currentColor;stroke-width:.35;stroke-linejoin:round}.pm-d{fill:none;stroke:currentColor;stroke-width:.3}.pm-k{fill:currentColor}.pm-l{fill:none;stroke:currentColor;stroke-width:.25;stroke-dasharray:.5 .7;opacity:.7}.pm-c{fill:none;stroke:currentColor;stroke-width:.3}.pm-x{fill:currentColor;font:3.8px/1 system-ui,sans-serif}.pm-n{fill:currentColor;font:600 3.3px/1 system-ui,sans-serif;text-anchor:middle;dominant-baseline:central}.pm-h{fill:currentColor;font:600 3.4px/1 system-ui,sans-serif;letter-spacing:.35px;text-transform:uppercase}.pm-e{fill:currentColor;font:3px/1 system-ui,sans-serif;opacity:.6}.pm-lg{display:none}</style><g transform="translate(0,0)"><text class="pm-h" x="0" y="3.4">Left side</text><g transform="translate(0,8)"><path class="pm-o" d="M4.86,0 H241.04 A4.86,4.86 0 0 1 245.9,4.86 V8.91 C245.9,14.38 242.75,16.2 236.9,16.2 H9 C3.15,16.2 0,14.38 0,8.91 V4.86 A4.86,4.86 0 0 1 4.86,0 Z"/><path class="pm-t" d="M.25,4.54 H245.65 M.25,5.04 H245.65"/><rect class="pm-t" x="17.21" y="16.2" width="8" height="0.8" rx="0.4"/><rect class="pm-t" x="220.69" y="16.2" width="8" height="0.8" rx="0.4"/><g class="pm-port" data-conn="left-1" transform="translate(33.9,10.62)"><rect class="pm-p" x="-4.3" y="-1.5" width="8.6" height="3" rx="1.5"/><rect class="pm-d" x="-2.9" y="-0.35" width="5.8" height="0.7" rx="0.35"/></g><g class="pm-port" data-conn="left-2" transform="translate(49.8,10.62)"><rect class="pm-p" x="-4.3" y="-1.5" width="8.6" height="3" rx="1.5"/><rect class="pm-d" x="-2.9" y="-0.35" width="5.8" height="0.7" rx="0.35"/></g><text class="pm-e" x="0" y="20.8">back</text><text class="pm-e" x="245.9" y="20.8" text-anchor="end">front</text><g class="pm-sm"><g class="pm-k" data-conn="left-1"><polyline class="pm-l" points="33.9,12.62 33.9,18.6 33.9,21.8"/><circle class="pm-c" cx="33.9" cy="24.5" r="2.6"/><text class="pm-n" x="33.9" y="24.6">1</text></g><g class="pm-k" data-conn="left-2"><polyline class="pm-l" points="49.8,12.62 49.8,18.6 49.8,21.8"/><circle class="pm-c" cx="49.8" cy="24.5" r="2.6"/><text class="pm-n" x="49.8" y="24.6">2</text></g><path class="pm-c" d="M31.3,28.3 V29.3 H52.4 V28.3"/><text class="pm-e" x="41.85" y="32.9" text-anchor="middle">controller A</text></g><rect class="pm-c" x="0" y="35.5" width="8.85" height="5.2" rx="2.6"/><text class="pm-n" x="4.42" y="38.2">1–2</text><text class="pm-x" x="10.65" y="39.45">Thunderbolt 3 (USB-C)</text></g></g><g transform="translate(0,59.6)"><text class="pm-h" x="0" y="3.4">Right side</text><g transform="translate(0,8)"><g transform="translate(245.9,0) scale(-1,1)"><path class="pm-o" d="M4.86,0 H241.04 A4.86,4.86 0 0 1 245.9,4.86 V8.91 C245.9,14.38 242.75,16.2 236.9,16.2 H9 C3.15,16.2 0,14.38 0,8.91 V4.86 A4.86,4.86 0 0 1 4.86,0 Z"/><path class="pm-t" d="M.25,4.54 H245.65 M.25,5.04 H245.65"/><rect class="pm-t" x="17.21" y="16.2" width="8" height="0.8" rx="0.4"/><rect class="pm-t" x="220.69" y="16.2" width="8" height="0.8" rx="0.4"/></g><g class="pm-port" data-conn="right-1" transform="translate(196.1,10.62)"><rect class="pm-p" x="-4.3" y="-1.5" width="8.6" height="3" rx="1.5"/><rect class="pm-d" x="-2.9" y="-0.35" width="5.8" height="0.7" rx="0.35"/></g><g class="pm-port" data-conn="right-2" transform="translate(212,10.62)"><rect class="pm-p" x="-4.3" y="-1.5" width="8.6" height="3" rx="1.5"/><rect class="pm-d" x="-2.9" y="-0.35" width="5.8" height="0.7" rx="0.35"/></g><g class="pm-port" data-conn="right-3" transform="translate(225.2,10.62)"><circle class="pm-d" cx="0" cy="0" r="3"/><circle class="pm-p" cx="0" cy="0" r="1.75"/></g><text class="pm-e" x="0" y="20.8">front</text><text class="pm-e" x="245.9" y="20.8" text-anchor="end">back</text><g class="pm-sm"><g class="pm-k" data-conn="right-1"><polyline class="pm-l" points="196.1,12.62 196.1,18.6 196.1,21.8"/><circle class="pm-c" cx="196.1" cy="24.5" r="2.6"/><text class="pm-n" x="196.1" y="24.6">1</text></g><g class="pm-k" data-conn="right-2"><polyline class="pm-l" points="212,12.62 212,18.6 212,21.8"/><circle class="pm-c" cx="212" cy="24.5" r="2.6"/><text class="pm-n" x="212" y="24.6">2</text></g><g class="pm-k" data-conn="right-3"><polyline class="pm-l" points="225.2,14.12 225.2,18.6 225.2,21.8"/><circle class="pm-c" cx="225.2" cy="24.5" r="2.6"/><text class="pm-n" x="225.2" y="24.6">3</text></g><path class="pm-c" d="M193.5,28.3 V29.3 H214.6 V28.3"/><text class="pm-e" x="204.05" y="32.9" text-anchor="middle">controller B</text></g><rect class="pm-c" x="0" y="35.5" width="8.85" height="5.2" rx="2.6"/><text class="pm-n" x="4.42" y="38.2">1–2</text><text class="pm-x" x="10.65" y="39.45">Thunderbolt 3 (USB-C)</text><rect class="pm-c" x="55.21" y="35.5" width="5.2" height="5.2" rx="2.6"/><text class="pm-n" x="57.81" y="38.2">3</text><text class="pm-x" x="62.21" y="39.45">Headphone</text></g></g><text class="pm-e" x="245.9" y="115.2" text-anchor="end">DoesItOmarchy · doesitomarchy.com · CC BY-SA 4.0</text></svg>
