<svg xmlns="http://www.w3.org/2000/svg" viewBox="-3 -3 202.5 104.4" width="709" height="365" role="img" aria-labelledby="pm-macbook9-1-early-2016-t pm-macbook9-1-early-2016-d"><title id="pm-macbook9-1-early-2016-t">MacBook (Retina, 12-inch, Early 2016) (MacBook9,1): port map</title><desc id="pm-macbook9-1-early-2016-d">Left side, left to right: 1 USB-C; Right side, left to right: 1 Headphone</desc><style>.pm-o{fill:none;stroke:currentColor;stroke-width:.45;stroke-linejoin:round}.pm-t{fill:none;stroke:currentColor;stroke-width:.25}.pm-f{fill:none;stroke:currentColor;stroke-width:.3;opacity:.45}.pm-p{fill:currentColor;fill-opacity:.1;stroke:currentColor;stroke-width:.35;stroke-linejoin:round}.pm-d{fill:none;stroke:currentColor;stroke-width:.3}.pm-k{fill:currentColor}.pm-l{fill:none;stroke:currentColor;stroke-width:.25;stroke-dasharray:.5 .7;opacity:.7}.pm-c{fill:none;stroke:currentColor;stroke-width:.3}.pm-x{fill:currentColor;font:3.8px/1 system-ui,sans-serif}.pm-n{fill:currentColor;font:600 3.3px/1 Inter,system-ui,sans-serif;text-anchor:middle}.pm-h{fill:currentColor;font:600 3.4px/1 system-ui,sans-serif;letter-spacing:.35px;text-transform:uppercase}.pm-e{fill:currentColor;font:3px/1 system-ui,sans-serif;opacity:.6}.pm-lg{display:none}</style><g transform="translate(0,0)"><text class="pm-h" x="0" y="3.4">Left side</text><g transform="translate(0,8)"><path class="pm-o" d="M0,1.44 C0,0.29 11.79,-0.28 23.58,0 L184.71,3.84 C191.19,3.99 196.5,5.21 196.5,5.8 V9.3 C194.44,11.2 189.62,13.1 182.75,13.1 H20.63 C11.35,13.1 2.48,10.82 0,9.3 Z"/><path class="pm-t" d="M.2,2.71 L196.3,7.39"/><path class="pm-f" d="M.3,8.71 H196.2"/><rect class="pm-t" x="22.63" y="13.1" width="8" height="0.8" rx="0.4"/><rect class="pm-t" x="172.75" y="13.1" width="8" height="0.8" rx="0.4"/><g class="pm-port" data-conn="left-1" transform="translate(13.4,5.87)"><rect class="pm-p" x="-4.47" y="-1.63" width="8.94" height="3.26" rx="1.63"/><rect class="pm-d" x="-3.35" y="-0.35" width="6.69" height="0.7" rx="0.35"/></g><text class="pm-e" x="0" y="17.7">back</text><text class="pm-e" x="196.5" y="17.7" text-anchor="end">front</text><g class="pm-sm"><g class="pm-k" data-conn="left-1"><polyline class="pm-l" points="13.4,8 13.4,15.5 13.4,18.7"/><circle class="pm-c" cx="13.4" cy="21.4" r="2.6"/><text class="pm-n" x="13.44" y="22.6">1</text></g></g><rect class="pm-c" x="0" y="26.6" width="5.2" height="5.2" rx="2.6"/><text class="pm-n" x="2.64" y="30.4">1</text><text class="pm-x" x="7" y="30.55">USB-C</text></g></g><g transform="translate(0,50.7)"><text class="pm-h" x="0" y="3.4">Right side</text><g transform="translate(0,8)"><g transform="translate(196.5,0) scale(-1,1)"><path class="pm-o" d="M0,1.44 C0,0.29 11.79,-0.28 23.58,0 L184.71,3.84 C191.19,3.99 196.5,5.21 196.5,5.8 V9.3 C194.44,11.2 189.62,13.1 182.75,13.1 H20.63 C11.35,13.1 2.48,10.82 0,9.3 Z"/><path class="pm-t" d="M.2,2.71 L196.3,7.39"/><path class="pm-f" d="M.3,8.71 H196.2"/><rect class="pm-t" x="22.63" y="13.1" width="8" height="0.8" rx="0.4"/><rect class="pm-t" x="172.75" y="13.1" width="8" height="0.8" rx="0.4"/></g><circle class="pm-f" cx="159.2" cy="6.16" r="0.45"/><circle class="pm-f" cx="172.9" cy="5.99" r="0.45"/><g class="pm-port" data-conn="right-1" transform="translate(185.7,5.84)"><circle class="pm-d" cx="0" cy="0" r="2.25"/><circle class="pm-p" cx="0" cy="0" r="1.31"/></g><text class="pm-e" x="0" y="17.7">front</text><text class="pm-e" x="196.5" y="17.7" text-anchor="end">back</text><g class="pm-sm"><g class="pm-k" data-conn="right-1"><polyline class="pm-l" points="185.7,8.59 185.7,15.5 185.7,18.7"/><circle class="pm-c" cx="185.7" cy="21.4" r="2.6"/><text class="pm-n" x="185.74" y="22.6">1</text></g></g><rect class="pm-c" x="0" y="26.6" width="5.2" height="5.2" rx="2.6"/><text class="pm-n" x="2.64" y="30.4">1</text><text class="pm-x" x="7" y="30.55">Headphone</text></g></g><text class="pm-e" x="196.5" y="97.4" text-anchor="end">DoesItOmarchy · doesitomarchy.com · CC BY-SA 4.0</text></svg>
