<svg xmlns="http://www.w3.org/2000/svg" viewBox="-3 -3 273 127.3" width="956" height="446" role="img" aria-labelledby="pm-macbookpro8-3-17-late-2011-t pm-macbookpro8-3-17-late-2011-d"><title id="pm-macbookpro8-3-17-late-2011-t">MacBook Pro (17-inch, Late 2011) (MacBookPro8,3): port map</title><desc id="pm-macbookpro8-3-17-late-2011-d">Left side, left to right: 1 MagSafe, 2 Gigabit Ethernet, 3 FireWire 800, 4 Thunderbolt, 5 USB 2, 6 USB 2, 7 USB 2, 8 Line in + optical in, 9 Headphone + optical out, 10 ExpressCard/34; Right side, left to right: no connectors</desc><style>.pm-o{fill:none;stroke:currentColor;stroke-width:.45;stroke-linejoin:round}.pm-t{fill:none;stroke:currentColor;stroke-width:.25}.pm-f{fill:none;stroke:currentColor;stroke-width:.3;opacity:.45}.pm-p{fill:currentColor;fill-opacity:.1;stroke:currentColor;stroke-width:.35;stroke-linejoin:round}.pm-d{fill:none;stroke:currentColor;stroke-width:.3}.pm-k{fill:currentColor}.pm-l{fill:none;stroke:currentColor;stroke-width:.25;stroke-dasharray:.5 .7;opacity:.7}.pm-c{fill:none;stroke:currentColor;stroke-width:.3}.pm-x{fill:currentColor;font:3.8px/1 system-ui,sans-serif}.pm-n{fill:currentColor;font:600 3.3px/1 system-ui,sans-serif;text-anchor:middle;dominant-baseline:central}.pm-h{fill:currentColor;font:600 3.4px/1 system-ui,sans-serif;letter-spacing:.35px;text-transform:uppercase}.pm-e{fill:currentColor;font:3px/1 system-ui,sans-serif;opacity:.6}.pm-lg{display:none}</style><g transform="translate(0,0)"><text class="pm-h" x="0" y="3.4">Left side</text><g transform="translate(0,8)"><path class="pm-o" d="M5,0 H262 A5,5 0 0 1 267,5 V17 A8,8 0 0 1 259,25 H8 A8,8 0 0 1 0,17 V5 A5,5 0 0 1 5,0 Z"/><path class="pm-t" d="M.25,6.5 H266.75 M.25,7.2 H266.75"/><path class="pm-f" d="M4.4,20 H262.6"/><rect class="pm-t" x="18.69" y="25" width="9" height="1" rx="0.5"/><rect class="pm-t" x="239.31" y="25" width="9" height="1" rx="0.5"/><circle class="pm-f" cx="230" cy="13.6" r="1.2"/><circle class="pm-f" cx="233.5" cy="13.6" r="0.35"/><circle class="pm-f" cx="235.1" cy="13.6" r="0.35"/><circle class="pm-f" cx="236.7" cy="13.6" r="0.35"/><circle class="pm-f" cx="238.3" cy="13.6" r="0.35"/><circle class="pm-f" cx="239.9" cy="13.6" r="0.35"/><circle class="pm-f" cx="241.5" cy="13.6" r="0.35"/><circle class="pm-f" cx="243.1" cy="13.6" r="0.35"/><circle class="pm-f" cx="244.7" cy="13.6" r="0.35"/><g class="pm-port" data-conn="left-1" transform="translate(22,13.6)"><rect class="pm-p" x="-7" y="-2.8" width="14" height="5.6" rx="1.1"/><circle class="pm-d" cx="-4" cy="0" r="0.55"/><circle class="pm-d" cx="-2" cy="0" r="0.55"/><circle class="pm-d" cx="0" cy="0" r="0.55"/><circle class="pm-d" cx="2" cy="0" r="0.55"/><circle class="pm-d" cx="4" cy="0" r="0.55"/></g><g class="pm-port" data-conn="left-2" transform="translate(38.9,13.6)"><path class="pm-p" d="M-5.8,-4.3 H5.8 V2.6 H2.4 V4.3 H-2.4 V2.6 H-5.8 Z"/><path class="pm-d" d="M-3.5,-4.3 v2.2"/><path class="pm-d" d="M-2.5,-4.3 v2.2"/><path class="pm-d" d="M-1.5,-4.3 v2.2"/><path class="pm-d" d="M-0.5,-4.3 v2.2"/><path class="pm-d" d="M0.5,-4.3 v2.2"/><path class="pm-d" d="M1.5,-4.3 v2.2"/><path class="pm-d" d="M2.5,-4.3 v2.2"/><path class="pm-d" d="M3.5,-4.3 v2.2"/></g><g class="pm-port" data-conn="left-3" transform="translate(52.9,13.6)"><rect class="pm-p" x="-4.6" y="-3.7" width="9.2" height="7.4" rx="0.8"/><path class="pm-d" d="M-2.8,-1.6 H2.8 V.6 L1.6,1.6 H-1.6 L-2.8,.6 Z"/></g><g class="pm-port" data-conn="left-4" transform="translate(65.3,13.6)"><path class="pm-p" d="M-3.8,-2.4 H3.8 V1.1 L2.5,2.4 H-2.5 L-3.8,1.1 Z"/><rect class="pm-d" x="-2.6" y="-1.4" width="5.2" height="1.1" rx="0.2"/></g><g class="pm-port" data-conn="left-5" transform="translate(78.6,13.6)"><rect class="pm-p" x="-6.25" y="-2.5" width="12.5" height="5" rx="0.5"/><rect class="pm-d" x="-5" y="-1.7" width="10" height="1.6" rx="0.2"/></g><g class="pm-port" data-conn="left-6" transform="translate(94,13.6)"><rect class="pm-p" x="-6.25" y="-2.5" width="12.5" height="5" rx="0.5"/><rect class="pm-d" x="-5" y="-1.7" width="10" height="1.6" rx="0.2"/></g><g class="pm-port" data-conn="left-7" transform="translate(109.5,13.6)"><rect class="pm-p" x="-6.25" y="-2.5" width="12.5" height="5" rx="0.5"/><rect class="pm-d" x="-5" y="-1.7" width="10" height="1.6" rx="0.2"/></g><g class="pm-port" data-conn="left-8" transform="translate(123.8,13.6)"><circle class="pm-d" cx="0" cy="0" r="3"/><circle class="pm-p" cx="0" cy="0" r="1.75"/></g><g class="pm-port" data-conn="left-9" transform="translate(135.9,13.6)"><circle class="pm-d" cx="0" cy="0" r="3"/><circle class="pm-p" cx="0" cy="0" r="1.75"/></g><g class="pm-port" data-conn="left-10" transform="translate(157,13.6)"><rect class="pm-p" x="-18" y="-2.8" width="36" height="5.6" rx="1"/><path class="pm-d" d="M-16,0 H16"/></g><text class="pm-e" x="0" y="29.8">back</text><text class="pm-e" x="267" y="29.8" text-anchor="end">front</text><g class="pm-sm"><g class="pm-k" data-conn="left-1"><polyline class="pm-l" points="22,16.9 22,27.6 22,30.8"/><circle class="pm-c" cx="22" cy="33.5" r="2.6"/><text class="pm-n" x="22" y="33.6">1</text></g><g class="pm-k" data-conn="left-2"><polyline class="pm-l" points="38.9,18.4 38.9,27.6 38.9,30.8"/><circle class="pm-c" cx="38.9" cy="33.5" r="2.6"/><text class="pm-n" x="38.9" y="33.6">2</text></g><g class="pm-k" data-conn="left-3"><polyline class="pm-l" points="52.9,17.8 52.9,27.6 52.9,30.8"/><circle class="pm-c" cx="52.9" cy="33.5" r="2.6"/><text class="pm-n" x="52.9" y="33.6">3</text></g><g class="pm-k" data-conn="left-4"><polyline class="pm-l" points="65.3,16.5 65.3,27.6 65.3,30.8"/><circle class="pm-c" cx="65.3" cy="33.5" r="2.6"/><text class="pm-n" x="65.3" y="33.6">4</text></g><g class="pm-k" data-conn="left-5"><polyline class="pm-l" points="78.6,16.6 78.6,27.6 78.6,30.8"/><circle class="pm-c" cx="78.6" cy="33.5" r="2.6"/><text class="pm-n" x="78.6" y="33.6">5</text></g><g class="pm-k" data-conn="left-6"><polyline class="pm-l" points="94,16.6 94,27.6 94,30.8"/><circle class="pm-c" cx="94" cy="33.5" r="2.6"/><text class="pm-n" x="94" y="33.6">6</text></g><g class="pm-k" data-conn="left-7"><polyline class="pm-l" points="109.5,16.6 109.5,27.6 109.5,30.8"/><circle class="pm-c" cx="109.5" cy="33.5" r="2.6"/><text class="pm-n" x="109.5" y="33.6">7</text></g><g class="pm-k" data-conn="left-8"><polyline class="pm-l" points="123.8,17.1 123.8,27.6 123.8,30.8"/><circle class="pm-c" cx="123.8" cy="33.5" r="2.6"/><text class="pm-n" x="123.8" y="33.6">8</text></g><g class="pm-k" data-conn="left-9"><polyline class="pm-l" points="135.9,17.1 135.9,27.6 135.9,30.8"/><circle class="pm-c" cx="135.9" cy="33.5" r="2.6"/><text class="pm-n" x="135.9" y="33.6">9</text></g><g class="pm-k" data-conn="left-10"><polyline class="pm-l" points="157,16.9 157,27.6 157,30.8"/><circle class="pm-c" cx="157" cy="33.5" r="2.6"/><text class="pm-n" x="157" y="33.6">10</text></g></g><rect class="pm-c" x="0" y="38.7" width="5.2" height="5.2" rx="2.6"/><text class="pm-n" x="2.6" y="41.4">1</text><text class="pm-x" x="7" y="42.65">MagSafe</text><rect class="pm-c" x="25.52" y="38.7" width="5.2" height="5.2" rx="2.6"/><text class="pm-n" x="28.12" y="41.4">2</text><text class="pm-x" x="32.52" y="42.65">Gigabit Ethernet</text><rect class="pm-c" x="67.78" y="38.7" width="5.2" height="5.2" rx="2.6"/><text class="pm-n" x="70.38" y="41.4">3</text><text class="pm-x" x="74.78" y="42.65">FireWire 800</text><rect class="pm-c" x="102.6" y="38.7" width="5.2" height="5.2" rx="2.6"/><text class="pm-n" x="105.2" y="41.4">4</text><text class="pm-x" x="109.6" y="42.65">Thunderbolt</text><rect class="pm-c" x="135.56" y="38.7" width="8.85" height="5.2" rx="2.6"/><text class="pm-n" x="139.99" y="41.4">5–7</text><text class="pm-x" x="146.21" y="42.65">USB 2</text><rect class="pm-c" x="161.01" y="38.7" width="5.2" height="5.2" rx="2.6"/><text class="pm-n" x="163.61" y="41.4">8</text><text class="pm-x" x="168.01" y="42.65">Line in + optical in</text><rect class="pm-c" x="210.71" y="38.7" width="5.2" height="5.2" rx="2.6"/><text class="pm-n" x="213.31" y="41.4">9</text><text class="pm-x" x="217.71" y="42.65">Headphone + optical out</text><rect class="pm-c" x="0" y="45.7" width="6.9" height="5.2" rx="2.6"/><text class="pm-n" x="3.45" y="48.4">10</text><text class="pm-x" x="8.7" y="49.65">ExpressCard/34</text></g></g><g transform="translate(0,69.8)"><text class="pm-h" x="0" y="3.4">Right side</text><g transform="translate(0,8)"><g transform="translate(267,0) scale(-1,1)"><path class="pm-o" d="M5,0 H262 A5,5 0 0 1 267,5 V17 A8,8 0 0 1 259,25 H8 A8,8 0 0 1 0,17 V5 A5,5 0 0 1 5,0 Z"/><path class="pm-t" d="M.25,6.5 H266.75 M.25,7.2 H266.75"/><path class="pm-f" d="M4.4,20 H262.6"/><rect class="pm-t" x="18.69" y="25" width="9" height="1" rx="0.5"/><rect class="pm-t" x="239.31" y="25" width="9" height="1" rx="0.5"/></g><rect class="pm-f" x="103.5" y="12.1" width="7" height="3" rx="0.4"/><rect class="pm-f" x="117.5" y="12.5" width="130.5" height="2.2" rx="1.1"/><text class="pm-e" x="0" y="29.8">front</text><text class="pm-e" x="267" y="29.8" text-anchor="end">back</text><text class="pm-x" x="0" y="34.7">No connectors on this side.</text></g></g><text class="pm-e" x="267" y="120.3" text-anchor="end">DoesItOmarchy · doesitomarchy.com · CC BY-SA 4.0</text></svg>
