<svg xmlns="http://www.w3.org/2000/svg" viewBox="-3 -3 233 131.9" width="816" height="462" role="img" aria-labelledby="pm-macbook2-1-mid-2007-t pm-macbook2-1-mid-2007-d"><title id="pm-macbook2-1-mid-2007-t">MacBook (13-inch, Mid 2007) (MacBook2,1): port map</title><desc id="pm-macbook2-1-mid-2007-d">Left side, left to right: 1 MagSafe, 2 Gigabit Ethernet, 3 Mini-DVI, 4 FireWire 400, 5 USB 2, 6 USB 2, 7 Line in + optical in, 8 Headphone + optical out; Right side, left to right: no connectors</desc><style>.pm-o{fill:none;stroke:currentColor;stroke-width:.45;stroke-linejoin:round}.pm-t{fill:none;stroke:currentColor;stroke-width:.25}.pm-f{fill:none;stroke:currentColor;stroke-width:.3;opacity:.45}.pm-p{fill:currentColor;fill-opacity:.1;stroke:currentColor;stroke-width:.35;stroke-linejoin:round}.pm-d{fill:none;stroke:currentColor;stroke-width:.3}.pm-k{fill:currentColor}.pm-l{fill:none;stroke:currentColor;stroke-width:.25;stroke-dasharray:.5 .7;opacity:.7}.pm-c{fill:none;stroke:currentColor;stroke-width:.3}.pm-x{fill:currentColor;font:3.8px/1 system-ui,sans-serif}.pm-n{fill:currentColor;font:600 3.3px/1 system-ui,sans-serif;text-anchor:middle;dominant-baseline:central}.pm-h{fill:currentColor;font:600 3.4px/1 system-ui,sans-serif;letter-spacing:.35px;text-transform:uppercase}.pm-e{fill:currentColor;font:3px/1 system-ui,sans-serif;opacity:.6}.pm-lg{display:none}</style><g transform="translate(0,0)"><text class="pm-h" x="0" y="3.4">Left side</text><g transform="translate(0,8)"><path class="pm-o" d="M7.15,0 H219.85 A7.15,7.15 0 0 1 227,7.15 V23.1 C227,26.4 225.78,27.5 223.5,27.5 H3.5 C1.22,27.5 0,26.4 0,23.1 V7.15 A7.15,7.15 0 0 1 7.15,0 Z"/><path class="pm-t" d="M.25,7.43 H226.75 M.25,8.12 H226.75"/><rect class="pm-t" x="15.89" y="27.5" width="8" height="0.8" rx="0.4"/><rect class="pm-t" x="203.11" y="27.5" width="8" height="0.8" rx="0.4"/><rect class="pm-f" x="159" y="14.11" width="7" height="3" rx="0.4"/><g class="pm-port" data-conn="left-1" transform="translate(28,15.61)"><rect class="pm-p" x="-7" y="-2.8" width="14" height="5.6" rx="1.1"/><circle class="pm-d" cx="-4" cy="0" r="0.55"/><circle class="pm-d" cx="-2" cy="0" r="0.55"/><circle class="pm-d" cx="0" cy="0" r="0.55"/><circle class="pm-d" cx="2" cy="0" r="0.55"/><circle class="pm-d" cx="4" cy="0" r="0.55"/></g><g class="pm-port" data-conn="left-2" transform="translate(46,15.61)"><path class="pm-p" d="M-5.8,-4.3 H5.8 V2.6 H2.4 V4.3 H-2.4 V2.6 H-5.8 Z"/><path class="pm-d" d="M-3.5,-4.3 v2.2"/><path class="pm-d" d="M-2.5,-4.3 v2.2"/><path class="pm-d" d="M-1.5,-4.3 v2.2"/><path class="pm-d" d="M-0.5,-4.3 v2.2"/><path class="pm-d" d="M0.5,-4.3 v2.2"/><path class="pm-d" d="M1.5,-4.3 v2.2"/><path class="pm-d" d="M2.5,-4.3 v2.2"/><path class="pm-d" d="M3.5,-4.3 v2.2"/></g><g class="pm-port" data-conn="left-3" transform="translate(63.6,15.61)"><path class="pm-p" d="M-4.6,-2.3 H4.6 V1.1 L3.4,2.3 H-3.4 L-4.6,1.1 Z"/><rect class="pm-d" x="-3.4" y="-0.8" width="6.8" height="1" rx="0.2"/></g><g class="pm-port" data-conn="left-4" transform="translate(80.5,15.61)"><path class="pm-p" d="M-4,-2.7 H2.6 A2.7,2.7 0 0 1 2.6,2.7 H-4 Z"/><rect class="pm-d" x="-2.6" y="-0.5" width="4.6" height="1" rx="0.3"/></g><g class="pm-port" data-conn="left-5" transform="translate(99,15.61)"><rect class="pm-p" x="-6.25" y="-2.5" width="12.5" height="5" rx="0.5"/><rect class="pm-d" x="-5" y="-1.7" width="10" height="1.6" rx="0.2"/></g><g class="pm-port" data-conn="left-6" transform="translate(117,15.61)"><rect class="pm-p" x="-6.25" y="-2.5" width="12.5" height="5" rx="0.5"/><rect class="pm-d" x="-5" y="-1.7" width="10" height="1.6" rx="0.2"/></g><g class="pm-port" data-conn="left-7" transform="translate(132,15.61)"><circle class="pm-d" cx="0" cy="0" r="3"/><circle class="pm-p" cx="0" cy="0" r="1.75"/></g><g class="pm-port" data-conn="left-8" transform="translate(145,15.61)"><circle class="pm-d" cx="0" cy="0" r="3"/><circle class="pm-p" cx="0" cy="0" r="1.75"/></g><text class="pm-e" x="0" y="32.1">back</text><text class="pm-e" x="227" y="32.1" text-anchor="end">front</text><g class="pm-sm"><g class="pm-k" data-conn="left-1"><polyline class="pm-l" points="28,18.91 28,29.9 28,33.1"/><circle class="pm-c" cx="28" cy="35.8" r="2.6"/><text class="pm-n" x="28" y="35.9">1</text></g><g class="pm-k" data-conn="left-2"><polyline class="pm-l" points="46,20.41 46,29.9 46,33.1"/><circle class="pm-c" cx="46" cy="35.8" r="2.6"/><text class="pm-n" x="46" y="35.9">2</text></g><g class="pm-k" data-conn="left-3"><polyline class="pm-l" points="63.6,18.41 63.6,29.9 63.6,33.1"/><circle class="pm-c" cx="63.6" cy="35.8" r="2.6"/><text class="pm-n" x="63.6" y="35.9">3</text></g><g class="pm-k" data-conn="left-4"><polyline class="pm-l" points="80.5,18.81 80.5,29.9 80.5,33.1"/><circle class="pm-c" cx="80.5" cy="35.8" r="2.6"/><text class="pm-n" x="80.5" y="35.9">4</text></g><g class="pm-k" data-conn="left-5"><polyline class="pm-l" points="99,18.61 99,29.9 99,33.1"/><circle class="pm-c" cx="99" cy="35.8" r="2.6"/><text class="pm-n" x="99" y="35.9">5</text></g><g class="pm-k" data-conn="left-6"><polyline class="pm-l" points="117,18.61 117,29.9 117,33.1"/><circle class="pm-c" cx="117" cy="35.8" r="2.6"/><text class="pm-n" x="117" y="35.9">6</text></g><g class="pm-k" data-conn="left-7"><polyline class="pm-l" points="132,19.11 132,29.9 132,33.1"/><circle class="pm-c" cx="132" cy="35.8" r="2.6"/><text class="pm-n" x="132" y="35.9">7</text></g><g class="pm-k" data-conn="left-8"><polyline class="pm-l" points="145,19.11 145,29.9 145,33.1"/><circle class="pm-c" cx="145" cy="35.8" r="2.6"/><text class="pm-n" x="145" y="35.9">8</text></g></g><rect class="pm-c" x="0" y="41" width="5.2" height="5.2" rx="2.6"/><text class="pm-n" x="2.6" y="43.7">1</text><text class="pm-x" x="7" y="44.95">MagSafe</text><rect class="pm-c" x="25.52" y="41" width="5.2" height="5.2" rx="2.6"/><text class="pm-n" x="28.12" y="43.7">2</text><text class="pm-x" x="32.52" y="44.95">Gigabit Ethernet</text><rect class="pm-c" x="67.78" y="41" width="5.2" height="5.2" rx="2.6"/><text class="pm-n" x="70.38" y="43.7">3</text><text class="pm-x" x="74.78" y="44.95">Mini-DVI</text><rect class="pm-c" x="95.16" y="41" width="5.2" height="5.2" rx="2.6"/><text class="pm-n" x="97.76" y="43.7">4</text><text class="pm-x" x="102.16" y="44.95">FireWire 400</text><rect class="pm-c" x="129.98" y="41" width="8.85" height="5.2" rx="2.6"/><text class="pm-n" x="134.41" y="43.7">5–6</text><text class="pm-x" x="140.63" y="44.95">USB 2</text><rect class="pm-c" x="155.43" y="41" width="5.2" height="5.2" rx="2.6"/><text class="pm-n" x="158.03" y="43.7">7</text><text class="pm-x" x="162.43" y="44.95">Line in + optical in</text><rect class="pm-c" x="0" y="48" width="5.2" height="5.2" rx="2.6"/><text class="pm-n" x="2.6" y="50.7">8</text><text class="pm-x" x="7" y="51.95">Headphone + optical out</text></g></g><g transform="translate(0,72.1)"><text class="pm-h" x="0" y="3.4">Right side</text><g transform="translate(0,8)"><g transform="translate(227,0) scale(-1,1)"><path class="pm-o" d="M7.15,0 H219.85 A7.15,7.15 0 0 1 227,7.15 V23.1 C227,26.4 225.78,27.5 223.5,27.5 H3.5 C1.22,27.5 0,26.4 0,23.1 V7.15 A7.15,7.15 0 0 1 7.15,0 Z"/><path class="pm-t" d="M.25,7.43 H226.75 M.25,8.12 H226.75"/><rect class="pm-t" x="15.89" y="27.5" width="8" height="0.8" rx="0.4"/><rect class="pm-t" x="203.11" y="27.5" width="8" height="0.8" rx="0.4"/></g><rect class="pm-f" x="45" y="14.51" width="130" height="2.2" rx="1.1"/><text class="pm-e" x="0" y="32.1">front</text><text class="pm-e" x="227" y="32.1" text-anchor="end">back</text><text class="pm-x" x="0" y="37">No connectors on this side.</text></g></g><text class="pm-e" x="227" y="124.9" text-anchor="end">DoesItOmarchy · doesitomarchy.com · CC BY-SA 4.0</text></svg>
