<svg xmlns="http://www.w3.org/2000/svg" class="pm" viewBox="-3 -3 225 109.2" width="788" height="382" role="img" aria-labelledby="pm-macbookpro11-1-13-mid-2014-t pm-macbookpro11-1-13-mid-2014-d"><title id="pm-macbookpro11-1-13-mid-2014-t">MacBook Pro (Retina, 13-inch, Mid 2014) (MacBookPro11,1): port map</title><desc id="pm-macbookpro11-1-13-mid-2014-d">Left side, left to right: 1 MagSafe 2, 2 Thunderbolt 2, 3 Thunderbolt 2, 4 USB 3, 5 Headphone + optical out; Right side, left to right: 1 SD card, 2 HDMI, 3 USB 3</desc><g transform="translate(0,0)"><text class="pm-h" x="0" y="3.4">Left side</text><g transform="translate(0,8)"><path class="pm-o" d="M3.96,0 H215.04 A3.96,3.96 0 0 1 219,3.96 V11.16 C219,16.2 216,18 208,18 H11 C3,18 0,16.2 0,11.16 V3.96 A3.96,3.96 0 0 1 3.96,0 Z"/><path class="pm-t" d="M.25,4.86 H218.75 M.25,5.46 H218.75"/><rect class="pm-t" x="17.52" y="18" width="8" height="0.8" rx="0.4"/><rect class="pm-t" x="193.48" y="18" width="8" height="0.8" rx="0.4"/><circle class="pm-f" cx="101.8" cy="11.73" r="0.45"/><circle class="pm-f" cx="117.2" cy="11.73" r="0.45"/><rect class="pm-f" x="92" y="14.88" width="31.83" height="1.2" rx="0.6"/><rect class="pm-f" x="125.33" y="14.88" width="31.83" height="1.2" rx="0.6"/><rect class="pm-f" x="158.67" y="14.88" width="31.83" height="1.2" rx="0.6"/><g class="pm-port" data-conn="left-1" transform="translate(21.9,11.73)"><rect class="pm-p" x="-8.4" y="-2" width="16.8" height="4" rx="2"/><circle class="pm-d" cx="-4" cy="0" r="0.5"/><circle class="pm-d" cx="-2" cy="0" r="0.5"/><circle class="pm-d" cx="0" cy="0" r="0.5"/><circle class="pm-d" cx="2" cy="0" r="0.5"/><circle class="pm-d" cx="4" cy="0" r="0.5"/></g><g class="pm-port" data-conn="left-2" transform="translate(41.6,11.73)"><path class="pm-p" d="M-3.8,-2.4 H3.8 V1.1 L2.5,2.4 H-2.5 L-3.8,1.1 Z"/><rect class="pm-d" x="-2.6" y="-1.4" width="5.2" height="1.1" rx="0.2"/></g><g class="pm-port" data-conn="left-3" transform="translate(55.8,11.73)"><path class="pm-p" d="M-3.8,-2.4 H3.8 V1.1 L2.5,2.4 H-2.5 L-3.8,1.1 Z"/><rect class="pm-d" x="-2.6" y="-1.4" width="5.2" height="1.1" rx="0.2"/></g><g class="pm-port" data-conn="left-4" transform="translate(71.2,11.73)"><rect class="pm-p" x="-6.25" y="-2.5" width="12.5" height="5" rx="0.5"/><rect class="pm-d" x="-5" y="-1.7" width="10" height="1.6" rx="0.2"/></g><g class="pm-port" data-conn="left-5" transform="translate(87.6,11.73)"><circle class="pm-d" cx="0" cy="0" r="3"/><circle class="pm-p" cx="0" cy="0" r="1.75"/></g><text class="pm-e" x="0" y="22.6">back</text><text class="pm-e" x="219" y="22.6" text-anchor="end">front</text><g class="pm-sm"><g class="pm-k" data-conn="left-1"><polyline class="pm-l" points="21.9,14.23 21.9,20.4 21.9,23.6"/><circle class="pm-c" cx="21.9" cy="26.3" r="2.6"/><text class="pm-n" x="21.9" y="26.4">1</text></g><g class="pm-k" data-conn="left-2"><polyline class="pm-l" points="41.6,14.63 41.6,20.4 41.6,23.6"/><circle class="pm-c" cx="41.6" cy="26.3" r="2.6"/><text class="pm-n" x="41.6" y="26.4">2</text></g><g class="pm-k" data-conn="left-3"><polyline class="pm-l" points="55.8,14.63 55.8,20.4 55.8,23.6"/><circle class="pm-c" cx="55.8" cy="26.3" r="2.6"/><text class="pm-n" x="55.8" y="26.4">3</text></g><g class="pm-k" data-conn="left-4"><polyline class="pm-l" points="71.2,14.73 71.2,20.4 71.2,23.6"/><circle class="pm-c" cx="71.2" cy="26.3" r="2.6"/><text class="pm-n" x="71.2" y="26.4">4</text></g><g class="pm-k" data-conn="left-5"><polyline class="pm-l" points="87.6,15.23 87.6,20.4 87.6,23.6"/><circle class="pm-c" cx="87.6" cy="26.3" r="2.6"/><text class="pm-n" x="87.6" y="26.4">5</text></g></g><g class="pm-lg"><g class="pm-k" data-conn="left-1"><polyline class="pm-l" points="21.9,14.23 21.9,20.4 21.9,26.6"/><circle class="pm-c" cx="21.9" cy="32.3" r="5.6"/><text class="pm-nb" x="21.9" y="32.4">1</text></g><g class="pm-k" data-conn="left-2"><polyline class="pm-l" points="41.6,14.63 41.6,20.4 41.6,26.6"/><circle class="pm-c" cx="41.6" cy="32.3" r="5.6"/><text class="pm-nb" x="41.6" y="32.4">2</text></g><g class="pm-k" data-conn="left-3"><polyline class="pm-l" points="55.8,14.63 55.8,20.4 55.8,26.6"/><circle class="pm-c" cx="55.8" cy="32.3" r="5.6"/><text class="pm-nb" x="55.8" y="32.4">3</text></g><g class="pm-k" data-conn="left-4"><polyline class="pm-l" points="71.2,14.73 71.2,20.4 71.2,26.6"/><circle class="pm-c" cx="71.2" cy="32.3" r="5.6"/><text class="pm-nb" x="71.2" y="32.4">4</text></g><g class="pm-k" data-conn="left-5"><polyline class="pm-l" points="87.6,15.23 87.6,20.4 87.6,26.6"/><circle class="pm-c" cx="87.6" cy="32.3" r="5.6"/><text class="pm-nb" x="87.6" y="32.4">5</text></g></g></g></g><g transform="translate(0,56.1)"><text class="pm-h" x="0" y="3.4">Right side</text><g transform="translate(0,8)"><g transform="translate(219,0) scale(-1,1)"><path class="pm-o" d="M3.96,0 H215.04 A3.96,3.96 0 0 1 219,3.96 V11.16 C219,16.2 216,18 208,18 H11 C3,18 0,16.2 0,11.16 V3.96 A3.96,3.96 0 0 1 3.96,0 Z"/><path class="pm-t" d="M.25,4.86 H218.75 M.25,5.46 H218.75"/><rect class="pm-t" x="17.52" y="18" width="8" height="0.8" rx="0.4"/><rect class="pm-t" x="193.48" y="18" width="8" height="0.8" rx="0.4"/></g><rect class="pm-f" x="26" y="14.88" width="32" height="1.2" rx="0.6"/><rect class="pm-f" x="59.5" y="14.88" width="32" height="1.2" rx="0.6"/><rect class="pm-f" x="93" y="14.88" width="32" height="1.2" rx="0.6"/><g class="pm-port" data-conn="right-1" transform="translate(155.5,11.73)"><rect class="pm-p" x="-12.5" y="-1.2" width="25" height="2.4" rx="1.2"/></g><g class="pm-port" data-conn="right-2" transform="translate(176.3,11.73)"><path class="pm-p" d="M-7.3,-2.5 H7.3 V0.9 L5.7,2.5 H-5.7 L-7.3,0.9 Z"/><rect class="pm-d" x="-5.6" y="-1.2" width="11.2" height="1.3" rx="0.2"/></g><g class="pm-port" data-conn="right-3" transform="translate(197.1,11.73)"><rect class="pm-p" x="-6.25" y="-2.5" width="12.5" height="5" rx="0.5"/><rect class="pm-d" x="-5" y="-1.7" width="10" height="1.6" rx="0.2"/></g><text class="pm-e" x="0" y="22.6">front</text><text class="pm-e" x="219" y="22.6" text-anchor="end">back</text><g class="pm-sm"><g class="pm-k" data-conn="right-1"><polyline class="pm-l" points="155.5,13.43 155.5,20.4 155.5,23.6"/><circle class="pm-c" cx="155.5" cy="26.3" r="2.6"/><text class="pm-n" x="155.5" y="26.4">1</text></g><g class="pm-k" data-conn="right-2"><polyline class="pm-l" points="176.3,14.73 176.3,20.4 176.3,23.6"/><circle class="pm-c" cx="176.3" cy="26.3" r="2.6"/><text class="pm-n" x="176.3" y="26.4">2</text></g><g class="pm-k" data-conn="right-3"><polyline class="pm-l" points="197.1,14.73 197.1,20.4 197.1,23.6"/><circle class="pm-c" cx="197.1" cy="26.3" r="2.6"/><text class="pm-n" x="197.1" y="26.4">3</text></g></g><g class="pm-lg"><g class="pm-k" data-conn="right-1"><polyline class="pm-l" points="155.5,13.43 155.5,20.4 155.5,26.6"/><circle class="pm-c" cx="155.5" cy="32.3" r="5.6"/><text class="pm-nb" x="155.5" y="32.4">1</text></g><g class="pm-k" data-conn="right-2"><polyline class="pm-l" points="176.3,14.73 176.3,20.4 176.3,26.6"/><circle class="pm-c" cx="176.3" cy="32.3" r="5.6"/><text class="pm-nb" x="176.3" y="32.4">2</text></g><g class="pm-k" data-conn="right-3"><polyline class="pm-l" points="197.1,14.73 197.1,20.4 197.1,26.6"/><circle class="pm-c" cx="197.1" cy="32.3" r="5.6"/><text class="pm-nb" x="197.1" y="32.4">3</text></g></g></g></g></svg>
