<svg xmlns="http://www.w3.org/2000/svg" class="pm pm-wide" viewBox="-3 -3 238 119.2" width="833" height="417" role="img" aria-labelledby="pm-macbook7-1-mid-2010-t pm-macbook7-1-mid-2010-d"><title id="pm-macbook7-1-mid-2010-t">MacBook (13-inch, Mid 2010) (MacBook7,1): port map</title><desc id="pm-macbook7-1-mid-2010-d">Left side, left to right: 1 MagSafe, 2 Gigabit Ethernet, 3 Mini DisplayPort, 4 USB 2, 5 USB 2, 6 Headphone + optical out + Line in; Right side, left to right: no connectors</desc><g transform="translate(0,0)"><text class="pm-h" x="0" y="3.4">Left side</text><g transform="translate(0,8)"><path class="pm-o" d="M8.22,0 H223.78 A8.22,8.22 0 0 1 232,8.22 V13.7 C232,23.97 227.1,27.4 218,27.4 H14 C4.9,27.4 0,23.97 0,13.7 V8.22 A8.22,8.22 0 0 1 8.22,0 Z"/><path class="pm-t" d="M.25,6.85 H231.75 M.25,7.45 H231.75"/><rect class="pm-t" x="16.24" y="27.4" width="8" height="0.8" rx="0.4"/><rect class="pm-t" x="207.76" y="27.4" width="8" height="0.8" rx="0.4"/><rect class="pm-f" x="112.1" y="15.92" width="7" height="3" rx="0.4"/><g class="pm-port" data-conn="left-1" transform="translate(26,17.42)"><rect class="pm-p" x="-6.5" y="-2.8" width="13" height="5.6" rx="0.8"/><rect class="pm-d" x="-3.15" y="-0.75" width="6.3" height="1.5" rx="0.75"/><circle class="pm-k" cx="-2.5" cy="0" r="0.35"/><circle class="pm-k" cx="-1.25" cy="0" r="0.35"/><circle class="pm-k" cx="0" cy="0" r="0.35"/><circle class="pm-k" cx="1.25" cy="0" r="0.35"/><circle class="pm-k" cx="2.5" cy="0" r="0.35"/></g><g class="pm-port" data-conn="left-2" transform="translate(42.65,17.42)"><path class="pm-p" d="M-5.85,-4.4 H5.85 V2.6 H3.1 V4.4 H-3.1 V2.6 H-5.85 Z"/><path class="pm-d" d="M-3.5,-4.4 v2.2"/><path class="pm-d" d="M-2.5,-4.4 v2.2"/><path class="pm-d" d="M-1.5,-4.4 v2.2"/><path class="pm-d" d="M-0.5,-4.4 v2.2"/><path class="pm-d" d="M0.5,-4.4 v2.2"/><path class="pm-d" d="M1.5,-4.4 v2.2"/><path class="pm-d" d="M2.5,-4.4 v2.2"/><path class="pm-d" d="M3.5,-4.4 v2.2"/></g><g class="pm-port" data-conn="left-3" transform="translate(56.55,17.42)"><path class="pm-p" d="M-3.75,-2.3 H3.75 V1.3 L2.75,2.3 H-2.75 L-3.75,1.3 Z"/><rect class="pm-d" x="-2.7" y="-0.6" width="5.4" height="1.2" rx="0.3"/></g><g class="pm-port" data-conn="left-4" transform="translate(71.15,17.42)"><rect class="pm-p" x="-6.5" y="-2.8" width="13" height="5.6" rx="0.6"/><rect class="pm-d" x="-5.55" y="-1.55" width="11.1" height="1.84" rx="0.25"/></g><g class="pm-port" data-conn="left-5" transform="translate(88.45,17.42)"><rect class="pm-p" x="-6.5" y="-2.8" width="13" height="5.6" rx="0.6"/><rect class="pm-d" x="-5.55" y="-1.55" width="11.1" height="1.84" rx="0.25"/></g><g class="pm-port" data-conn="left-6" transform="translate(101.5,17.42)"><circle class="pm-d" cx="0" cy="0" r="2.25"/><circle class="pm-p" cx="0" cy="0" r="1.31"/></g><text class="pm-e" x="0" y="32">back</text><text class="pm-e" x="232" y="32" text-anchor="end">front</text><g class="pm-sm"><g class="pm-k" data-conn="left-1"><polyline class="pm-l" points="26,20.72 26,29.8 26,33"/><circle class="pm-c" cx="26" cy="35.7" r="2.6"/><text class="pm-n" x="26.04" y="36.9">1</text></g><g class="pm-k" data-conn="left-2"><polyline class="pm-l" points="42.65,22.32 42.65,29.8 42.65,33"/><circle class="pm-c" cx="42.65" cy="35.7" r="2.6"/><text class="pm-n" x="42.65" y="36.9">2</text></g><g class="pm-k" data-conn="left-3"><polyline class="pm-l" points="56.55,20.22 56.55,29.8 56.55,33"/><circle class="pm-c" cx="56.55" cy="35.7" r="2.6"/><text class="pm-n" x="56.55" y="36.9">3</text></g><g class="pm-k" data-conn="left-4"><polyline class="pm-l" points="71.15,20.72 71.15,29.8 71.15,33"/><circle class="pm-c" cx="71.15" cy="35.7" r="2.6"/><text class="pm-n" x="71.14" y="36.9">4</text></g><g class="pm-k" data-conn="left-5"><polyline class="pm-l" points="88.45,20.72 88.45,29.8 88.45,33"/><circle class="pm-c" cx="88.45" cy="35.7" r="2.6"/><text class="pm-n" x="88.45" y="36.9">5</text></g><g class="pm-k" data-conn="left-6"><polyline class="pm-l" points="101.5,20.17 101.5,29.8 101.5,33"/><circle class="pm-c" cx="101.5" cy="35.7" r="2.6"/><text class="pm-n" x="101.5" y="36.9">6</text></g></g><g class="pm-lg"><g class="pm-k" data-conn="left-1"><polyline class="pm-l" points="26,20.72 26,29.8 26,36"/><circle class="pm-c" cx="26" cy="41.7" r="5.6"/><text class="pm-nb" x="26.1" y="44.39">1</text></g><g class="pm-k" data-conn="left-2"><polyline class="pm-l" points="42.65,22.32 42.65,29.8 42.65,36"/><circle class="pm-c" cx="42.65" cy="41.7" r="5.6"/><text class="pm-nb" x="42.65" y="44.39">2</text></g><g class="pm-k" data-conn="left-3"><polyline class="pm-l" points="56.55,20.22 56.55,29.8 56.55,36"/><circle class="pm-c" cx="56.55" cy="41.7" r="5.6"/><text class="pm-nb" x="56.54" y="44.39">3</text></g><g class="pm-k" data-conn="left-4"><polyline class="pm-l" points="71.15,20.72 71.15,29.8 71.15,36"/><circle class="pm-c" cx="71.15" cy="41.7" r="5.6"/><text class="pm-nb" x="71.14" y="44.39">4</text></g><g class="pm-k" data-conn="left-5"><polyline class="pm-l" points="88.45,20.72 88.45,29.8 88.45,36"/><circle class="pm-c" cx="88.45" cy="41.7" r="5.6"/><text class="pm-nb" x="88.44" y="44.39">5</text></g><g class="pm-k" data-conn="left-6"><polyline class="pm-l" points="101.5,20.17 101.5,29.8 101.5,36"/><circle class="pm-c" cx="101.5" cy="41.7" r="5.6"/><text class="pm-nb" x="101.5" y="44.39">6</text></g></g></g></g><g transform="translate(0,65.5)"><text class="pm-h" x="0" y="3.4">Right side</text><g transform="translate(0,8)"><g transform="translate(232,0) scale(-1,1)"><path class="pm-o" d="M8.22,0 H223.78 A8.22,8.22 0 0 1 232,8.22 V13.7 C232,23.97 227.1,27.4 218,27.4 H14 C4.9,27.4 0,23.97 0,13.7 V8.22 A8.22,8.22 0 0 1 8.22,0 Z"/><path class="pm-t" d="M.25,6.85 H231.75 M.25,7.45 H231.75"/><rect class="pm-t" x="16.24" y="27.4" width="8" height="0.8" rx="0.4"/><rect class="pm-t" x="207.76" y="27.4" width="8" height="0.8" rx="0.4"/></g><rect class="pm-f" x="52" y="16.32" width="130" height="2.2" rx="1.1"/><text class="pm-e" x="0" y="32">front</text><text class="pm-e" x="232" y="32" text-anchor="end">back</text><text class="pm-x" x="0" y="36.9">No connectors on this side.</text></g></g></svg>
