<svg xmlns="http://www.w3.org/2000/svg" class="pm pm-wide" viewBox="-3 -3 271 125" width="948" height="438" role="img" aria-labelledby="pm-macbookpro4-1-17-early-2008-t pm-macbookpro4-1-17-early-2008-d"><title id="pm-macbookpro4-1-17-early-2008-t">MacBook Pro (17-inch, Early 2008) (MacBookPro4,1): port map</title><desc id="pm-macbookpro4-1-17-early-2008-d">Left side, left to right: 1 MagSafe, 2 USB 2, 3 USB 2, 4 Line in + optical in, 5 Headphone + optical out, 6 ExpressCard/34; Right side, left to right: 1 USB 2, 2 FireWire 400, 3 FireWire 800, 4 Gigabit Ethernet, 5 DVI</desc><g transform="translate(0,0)"><text class="pm-h" x="0" y="3.4">Left side</text><g transform="translate(0,8)"><path class="pm-o" d="M6.22,0 H258.78 A6.22,6.22 0 0 1 265,6.22 V22.27 C265,24.99 264.12,25.9 262.5,25.9 H2.5 C0.88,25.9 0,24.99 0,22.27 V6.22 A6.22,6.22 0 0 1 6.22,0 Z"/><path class="pm-t" d="M.25,7.77 H264.75 M.25,8.57 H264.75"/><rect class="pm-t" x="18.55" y="25.9" width="8" height="0.8" rx="0.4"/><rect class="pm-t" x="238.45" y="25.9" width="8" height="0.8" rx="0.4"/><circle class="pm-f" cx="12.7" cy="11.92" r="0.7"/><circle class="pm-f" cx="91.4" cy="11.92" r="0.7"/><circle class="pm-f" cx="172.3" cy="11.92" r="0.7"/><circle class="pm-f" cx="252.3" cy="11.92" r="0.7"/><g class="pm-port" data-conn="left-1" transform="translate(30.5,15.42)"><rect class="pm-p" x="-7" y="-2.8" width="14" height="5.6" rx="1.1"/><circle class="pm-d" cx="-4" cy="0" r="0.55"/><circle class="pm-d" cx="-2" cy="0" r="0.55"/><circle class="pm-d" cx="0" cy="0" r="0.55"/><circle class="pm-d" cx="2" cy="0" r="0.55"/><circle class="pm-d" cx="4" cy="0" r="0.55"/></g><g class="pm-port" data-conn="left-2" transform="translate(50.4,15.42)"><rect class="pm-p" x="-6.25" y="-2.5" width="12.5" height="5" rx="0.5"/><rect class="pm-d" x="-5" y="-1.7" width="10" height="1.6" rx="0.2"/></g><g class="pm-port" data-conn="left-3" transform="translate(69.2,15.42)"><rect class="pm-p" x="-6.25" y="-2.5" width="12.5" height="5" rx="0.5"/><rect class="pm-d" x="-5" y="-1.7" width="10" height="1.6" rx="0.2"/></g><g class="pm-port" data-conn="left-4" transform="translate(85.6,15.42)"><circle class="pm-d" cx="0" cy="0" r="3"/><circle class="pm-p" cx="0" cy="0" r="1.75"/></g><g class="pm-port" data-conn="left-5" transform="translate(98.6,15.42)"><circle class="pm-d" cx="0" cy="0" r="3"/><circle class="pm-p" cx="0" cy="0" r="1.75"/></g><g class="pm-port" data-conn="left-6" transform="translate(125.9,15.42)"><rect class="pm-p" x="-18" y="-2.8" width="36" height="5.6" rx="1"/><path class="pm-d" d="M-16,0 H16"/></g><text class="pm-e" x="0" y="30.5">back</text><text class="pm-e" x="265" y="30.5" text-anchor="end">front</text><g class="pm-sm"><g class="pm-k" data-conn="left-1"><polyline class="pm-l" points="30.5,18.72 30.5,28.3 30.5,31.5"/><circle class="pm-c" cx="30.5" cy="34.2" r="2.6"/><text class="pm-n" x="30.5" y="34.3">1</text></g><g class="pm-k" data-conn="left-2"><polyline class="pm-l" points="50.4,18.42 50.4,28.3 50.4,31.5"/><circle class="pm-c" cx="50.4" cy="34.2" r="2.6"/><text class="pm-n" x="50.4" y="34.3">2</text></g><g class="pm-k" data-conn="left-3"><polyline class="pm-l" points="69.2,18.42 69.2,28.3 69.2,31.5"/><circle class="pm-c" cx="69.2" cy="34.2" r="2.6"/><text class="pm-n" x="69.2" y="34.3">3</text></g><g class="pm-k" data-conn="left-4"><polyline class="pm-l" points="85.6,18.92 85.6,28.3 85.6,31.5"/><circle class="pm-c" cx="85.6" cy="34.2" r="2.6"/><text class="pm-n" x="85.6" y="34.3">4</text></g><g class="pm-k" data-conn="left-5"><polyline class="pm-l" points="98.6,18.92 98.6,28.3 98.6,31.5"/><circle class="pm-c" cx="98.6" cy="34.2" r="2.6"/><text class="pm-n" x="98.6" y="34.3">5</text></g><g class="pm-k" data-conn="left-6"><polyline class="pm-l" points="125.9,18.72 125.9,28.3 125.9,31.5"/><circle class="pm-c" cx="125.9" cy="34.2" r="2.6"/><text class="pm-n" x="125.9" y="34.3">6</text></g></g><g class="pm-lg"><g class="pm-k" data-conn="left-1"><polyline class="pm-l" points="30.5,18.72 30.5,28.3 30.5,34.5"/><circle class="pm-c" cx="30.5" cy="40.2" r="5.6"/><text class="pm-nb" x="30.5" y="40.3">1</text></g><g class="pm-k" data-conn="left-2"><polyline class="pm-l" points="50.4,18.42 50.4,28.3 50.4,34.5"/><circle class="pm-c" cx="50.4" cy="40.2" r="5.6"/><text class="pm-nb" x="50.4" y="40.3">2</text></g><g class="pm-k" data-conn="left-3"><polyline class="pm-l" points="69.2,18.42 69.2,28.3 69.2,34.5"/><circle class="pm-c" cx="69.2" cy="40.2" r="5.6"/><text class="pm-nb" x="69.2" y="40.3">3</text></g><g class="pm-k" data-conn="left-4"><polyline class="pm-l" points="85.6,18.92 85.6,28.3 85.6,34.5"/><circle class="pm-c" cx="85.6" cy="40.2" r="5.6"/><text class="pm-nb" x="85.6" y="40.3">4</text></g><g class="pm-k" data-conn="left-5"><polyline class="pm-l" points="98.6,18.92 98.6,28.3 98.6,34.5"/><circle class="pm-c" cx="98.6" cy="40.2" r="5.6"/><text class="pm-nb" x="98.6" y="40.3">5</text></g><g class="pm-k" data-conn="left-6"><polyline class="pm-l" points="125.9,18.72 125.9,28.3 125.9,34.5"/><circle class="pm-c" cx="125.9" cy="40.2" r="5.6"/><text class="pm-nb" x="125.9" y="40.3">6</text></g></g></g></g><g transform="translate(0,64)"><text class="pm-h" x="0" y="3.4">Right side</text><g transform="translate(0,8)"><g transform="translate(265,0) scale(-1,1)"><path class="pm-o" d="M6.22,0 H258.78 A6.22,6.22 0 0 1 265,6.22 V22.27 C265,24.99 264.12,25.9 262.5,25.9 H2.5 C0.88,25.9 0,24.99 0,22.27 V6.22 A6.22,6.22 0 0 1 6.22,0 Z"/><path class="pm-t" d="M.25,7.77 H264.75 M.25,8.57 H264.75"/><rect class="pm-t" x="18.55" y="25.9" width="8" height="0.8" rx="0.4"/><rect class="pm-t" x="238.45" y="25.9" width="8" height="0.8" rx="0.4"/></g><circle class="pm-f" cx="12.2" cy="11.92" r="0.7"/><circle class="pm-f" cx="91.4" cy="11.92" r="0.7"/><circle class="pm-f" cx="184.2" cy="11.92" r="0.7"/><circle class="pm-f" cx="251.5" cy="11.92" r="0.7"/><rect class="pm-f" x="111" y="13.92" width="7" height="3" rx="0.4"/><g class="pm-port" data-conn="right-1" transform="translate(132.5,15.42)"><rect class="pm-p" x="-6.25" y="-2.5" width="12.5" height="5" rx="0.5"/><rect class="pm-d" x="-5" y="-1.7" width="10" height="1.6" rx="0.2"/></g><g class="pm-port" data-conn="right-2" transform="translate(153.4,15.42)"><path class="pm-p" d="M-4,-2.7 H2.6 A2.7,2.7 0 0 1 2.6,2.7 H-4 Z"/><rect class="pm-d" x="-2.6" y="-0.5" width="4.6" height="1" rx="0.3"/></g><g class="pm-port" data-conn="right-3" transform="translate(173.8,15.42)"><rect class="pm-p" x="-4.6" y="-3.7" width="9.2" height="7.4" rx="0.8"/><path class="pm-d" d="M-2.8,-1.6 H2.8 V.6 L1.6,1.6 H-1.6 L-2.8,.6 Z"/></g><g class="pm-port" data-conn="right-4" transform="translate(194.2,15.42)"><path class="pm-p" d="M-5.8,-4.3 H5.8 V2.6 H2.4 V4.3 H-2.4 V2.6 H-5.8 Z"/><path class="pm-d" d="M-3.5,-4.3 v2.2"/><path class="pm-d" d="M-2.5,-4.3 v2.2"/><path class="pm-d" d="M-1.5,-4.3 v2.2"/><path class="pm-d" d="M-0.5,-4.3 v2.2"/><path class="pm-d" d="M0.5,-4.3 v2.2"/><path class="pm-d" d="M1.5,-4.3 v2.2"/><path class="pm-d" d="M2.5,-4.3 v2.2"/><path class="pm-d" d="M3.5,-4.3 v2.2"/></g><g class="pm-port" data-conn="right-5" transform="translate(224.2,15.42)"><path class="pm-p" d="M-13.5,-4.75 H13.5 V2.15 L10.9,4.75 H-10.9 L-13.5,2.15 Z"/><circle class="pm-k" cx="-9" cy="-2" r="0.35"/><circle class="pm-k" cx="-6.8" cy="-2" r="0.35"/><circle class="pm-k" cx="-4.6" cy="-2" r="0.35"/><circle class="pm-k" cx="-2.4" cy="-2" r="0.35"/><circle class="pm-k" cx="-0.2" cy="-2" r="0.35"/><circle class="pm-k" cx="2" cy="-2" r="0.35"/><circle class="pm-k" cx="4.2" cy="-2" r="0.35"/><circle class="pm-k" cx="6.4" cy="-2" r="0.35"/><circle class="pm-k" cx="-9" cy="0" r="0.35"/><circle class="pm-k" cx="-6.8" cy="0" r="0.35"/><circle class="pm-k" cx="-4.6" cy="0" r="0.35"/><circle class="pm-k" cx="-2.4" cy="0" r="0.35"/><circle class="pm-k" cx="-0.2" cy="0" r="0.35"/><circle class="pm-k" cx="2" cy="0" r="0.35"/><circle class="pm-k" cx="4.2" cy="0" r="0.35"/><circle class="pm-k" cx="6.4" cy="0" r="0.35"/><circle class="pm-k" cx="-9" cy="2" r="0.35"/><circle class="pm-k" cx="-6.8" cy="2" r="0.35"/><circle class="pm-k" cx="-4.6" cy="2" r="0.35"/><circle class="pm-k" cx="-2.4" cy="2" r="0.35"/><circle class="pm-k" cx="-0.2" cy="2" r="0.35"/><circle class="pm-k" cx="2" cy="2" r="0.35"/><circle class="pm-k" cx="4.2" cy="2" r="0.35"/><circle class="pm-k" cx="6.4" cy="2" r="0.35"/><circle class="pm-d" cx="-17" cy="0" r="1.5"/><circle class="pm-d" cx="17" cy="0" r="1.5"/><rect class="pm-d" x="7.2" y="-0.5" width="3.4" height="1" rx="0.3"/></g><text class="pm-e" x="0" y="30.5">front</text><text class="pm-e" x="265" y="30.5" text-anchor="end">back</text><g class="pm-sm"><g class="pm-k" data-conn="right-1"><polyline class="pm-l" points="132.5,18.42 132.5,28.3 132.5,31.5"/><circle class="pm-c" cx="132.5" cy="34.2" r="2.6"/><text class="pm-n" x="132.5" y="34.3">1</text></g><g class="pm-k" data-conn="right-2"><polyline class="pm-l" points="153.4,18.62 153.4,28.3 153.4,31.5"/><circle class="pm-c" cx="153.4" cy="34.2" r="2.6"/><text class="pm-n" x="153.4" y="34.3">2</text></g><g class="pm-k" data-conn="right-3"><polyline class="pm-l" points="173.8,19.62 173.8,28.3 173.8,31.5"/><circle class="pm-c" cx="173.8" cy="34.2" r="2.6"/><text class="pm-n" x="173.8" y="34.3">3</text></g><g class="pm-k" data-conn="right-4"><polyline class="pm-l" points="194.2,20.22 194.2,28.3 194.2,31.5"/><circle class="pm-c" cx="194.2" cy="34.2" r="2.6"/><text class="pm-n" x="194.2" y="34.3">4</text></g><g class="pm-k" data-conn="right-5"><polyline class="pm-l" points="224.2,20.67 224.2,28.3 224.2,31.5"/><circle class="pm-c" cx="224.2" cy="34.2" r="2.6"/><text class="pm-n" x="224.2" y="34.3">5</text></g></g><g class="pm-lg"><g class="pm-k" data-conn="right-1"><polyline class="pm-l" points="132.5,18.42 132.5,28.3 132.5,34.5"/><circle class="pm-c" cx="132.5" cy="40.2" r="5.6"/><text class="pm-nb" x="132.5" y="40.3">1</text></g><g class="pm-k" data-conn="right-2"><polyline class="pm-l" points="153.4,18.62 153.4,28.3 153.4,34.5"/><circle class="pm-c" cx="153.4" cy="40.2" r="5.6"/><text class="pm-nb" x="153.4" y="40.3">2</text></g><g class="pm-k" data-conn="right-3"><polyline class="pm-l" points="173.8,19.62 173.8,28.3 173.8,34.5"/><circle class="pm-c" cx="173.8" cy="40.2" r="5.6"/><text class="pm-nb" x="173.8" y="40.3">3</text></g><g class="pm-k" data-conn="right-4"><polyline class="pm-l" points="194.2,20.22 194.2,28.3 194.2,34.5"/><circle class="pm-c" cx="194.2" cy="40.2" r="5.6"/><text class="pm-nb" x="194.2" y="40.3">4</text></g><g class="pm-k" data-conn="right-5"><polyline class="pm-l" points="224.2,20.67 224.2,28.3 224.2,34.5"/><circle class="pm-c" cx="224.2" cy="40.2" r="5.6"/><text class="pm-nb" x="224.2" y="40.3">5</text></g></g></g></g></svg>
